<?xml version="1.0" encoding="UTF-8"?>
<svg version="1.1" xmlns="http://www.w3.org/2000/svg" width="137" height="164">
<path d="M0 0 C0.66 0.33 1.32 0.66 2 1 C2 26.74 2 52.48 2 79 C5.63 77.02 9.26 75.04 13 73 C14.01256554 69.34629558 14.1965129 67.71818443 13.87109375 64.12890625 C13.84926529 63.2883519 13.82743683 62.44779755 13.8049469 61.58177185 C13.71158285 58.00252586 13.49101097 54.43451601 13.27172852 50.86108398 C12.60427896 38.52621105 12.60427896 38.52621105 14 34 C17.52798054 30.25780967 21.23057396 28.73249981 26 27 C27.74611187 26.05138097 29.47877254 25.07691371 31.1875 24.0625 C38.61946347 20.02956688 46.3267875 16.54425056 54 13 C55.55932302 14.55932302 55.3943084 16.08855897 55.5625 18.25 C55.64628906 19.01828125 55.73007813 19.7865625 55.81640625 20.578125 C54.42805092 24.69669105 50.67922551 26.01656688 47 28 C46.28884033 28.39783691 45.57768066 28.79567383 44.8449707 29.20556641 C42.7012113 30.39210204 40.54181664 31.54368582 38.375 32.6875 C37.65054688 33.07744141 36.92609375 33.46738281 36.1796875 33.86914062 C35.11234375 34.4347168 35.11234375 34.4347168 34.0234375 35.01171875 C33.07863525 35.51384888 33.07863525 35.51384888 32.11474609 36.02612305 C29.49804633 37.2311583 26.7330029 38.08899903 24 39 C24.33 48.24 24.66 57.48 25 67 C34.73085233 62.15551636 34.73085233 62.15551636 44.16015625 56.8828125 C46 56 46 56 49 56 C49 59.63 49 63.26 49 67 C41 71 33 75 25 79 C25.00636475 80.00377686 25.01272949 81.00755371 25.01928711 82.04174805 C25.03375713 85.77900628 25.00232656 89.51473332 24.95727539 93.25170898 C24.9441649 94.86656475 24.94337485 96.48157076 24.95532227 98.09643555 C24.97037489 100.4238574 24.94060416 102.74713606 24.90234375 105.07421875 C24.92372658 106.15107185 24.92372658 106.15107185 24.94554138 107.24967957 C24.86032209 110.22407736 24.56683077 112.39943952 22.48709106 114.60293579 C19.48329858 116.85648397 17.82886109 118 14 118 C14 107.11 14 96.22 14 85 C10.04 86.98 6.08 88.96 2 91 C2.02094727 92.4634082 2.04189453 93.92681641 2.06347656 95.43457031 C2.13584923 100.86139144 2.1817903 106.28816987 2.21972656 111.71533203 C2.23984814 114.06468884 2.26714851 116.41399554 2.30175781 118.76318359 C2.3502504 122.13912315 2.37296357 125.51440086 2.390625 128.890625 C2.41127014 129.94179504 2.43191528 130.99296509 2.45318604 132.07598877 C2.45542901 139.35682957 2.45542901 139.35682957 0.14746094 142.61621094 C-2.16391333 144.1056231 -4.39323736 145.13107912 -7 146 C-7.95162372 143.14512885 -8.12163139 141.39545683 -8.11352539 138.43676758 C-8.11344986 137.51603958 -8.11337433 136.59531158 -8.11329651 135.64668274 C-8.10813522 134.65597275 -8.10297394 133.66526276 -8.09765625 132.64453125 C-8.0962413 131.62775803 -8.09482635 130.6109848 -8.09336853 129.56340027 C-8.08776707 126.31307036 -8.07521432 123.06280912 -8.0625 119.8125 C-8.05748519 117.61002704 -8.05292225 115.40755299 -8.04882812 113.20507812 C-8.03779717 107.80336196 -8.02105762 102.40168588 -8 97 C-16.49762052 99.88723882 -16.49762052 99.88723882 -24.375 104.125 C-27.50843614 106.14758587 -30.49860458 107.70089569 -34 109 C-35.60712465 107.39287535 -35.15151668 105.66041064 -35.17700195 103.43603516 C-35.18983719 102.46477692 -35.20267242 101.49351868 -35.21589661 100.49282837 C-35.22328354 99.43558563 -35.23067047 98.3783429 -35.23828125 97.2890625 C-35.246353 96.20998627 -35.25442474 95.13091003 -35.26274109 94.01913452 C-35.27660002 91.73087175 -35.28731404 89.44258814 -35.29516602 87.15429688 C-35.31239323 83.64673931 -35.35626579 80.14012039 -35.40039062 76.6328125 C-35.41051561 74.41406946 -35.41903232 72.19531838 -35.42578125 69.9765625 C-35.44328934 68.92336823 -35.46079742 67.87017395 -35.47883606 66.7850647 C-35.47591049 65.80750214 -35.47298492 64.82993958 -35.4699707 63.82275391 C-35.47583694 62.96195221 -35.48170319 62.10115051 -35.48774719 61.21426392 C-35 59 -35 59 -33.11906433 57.27206421 C-30.80109916 55.88060077 -28.48134216 54.76200978 -26 53.6875 C-19.91980094 50.9640775 -13.95891606 47.97945803 -8 45 C-7.67 31.14 -7.34 17.28 -7 3 C-4.69 2.01 -2.38 1.02 0 0 Z M-12.9140625 57.96875 C-13.94200928 58.51692383 -13.94200928 58.51692383 -14.99072266 59.07617188 C-15.86003418 59.54603516 -16.7293457 60.01589844 -17.625 60.5 C-20.38875 61.985 -23.1525 63.47 -26 65 C-26 74.24 -26 83.48 -26 93 C-23.03 92.505 -23.03 92.505 -20 92 C-20 91.34 -20 90.68 -20 90 C-18.37239583 89.57682292 -16.74479167 89.15364583 -15.1171875 88.73046875 C-12.30223037 87.7592566 -9.66341685 86.33170843 -7 85 C-7 75.43 -7 65.86 -7 56 C-9.5020474 56 -10.71288486 56.78602769 -12.9140625 57.96875 Z " fill="#E8E8E8" transform="translate(61,13)"/>
<path d="M0 0 C0.99 0.33 1.98 0.66 3 1 C2.34 1 1.68 1 1 1 C1 15.19 1 29.38 1 44 C0.01 44.495 0.01 44.495 -1 45 C-1.66 44.34 -2.32 43.68 -3 43 C-2.01 42.505 -2.01 42.505 -1 42 C-0.67 28.14 -0.34 14.28 0 0 Z " fill="#E0E0E0" transform="translate(54,16)"/>
<path d="M0 0 C0.66 0.33 1.32 0.66 2 1 C2 3.97 2 6.94 2 10 C1.67 10 1.34 10 1 10 C0.67 8.02 0.34 6.04 0 4 C-1.98 4 -3.96 4 -6 4 C-4.03617993 2.49440461 -2.21736634 1.10868317 0 0 Z " fill="#BCBCBC" transform="translate(114,26)"/>
</svg>
